<svg id="visual" viewBox="0 0 1900 400" width="1900" height="400" xmlns="http://www.w3.org/2000/svg" xmlns:xlink="http://www.w3.org/1999/xlink" version="1.1"><g stroke-width="1" stroke-linejoin="bevel"><path d="M978 172L1025 132L1007 113Z" fill="#0b0092" stroke="#0b0092"></path><path d="M1046 0L956 52L1007 113Z" fill="#0f009f" stroke="#0f009f"></path><path d="M1007 113L956 52L978 172Z" fill="#0f009f" stroke="#0f009f"></path><path d="M862 254L979 258L978 172Z" fill="#070086" stroke="#070086"></path><path d="M978 172L1031 279L1025 132Z" fill="#040079" stroke="#040079"></path><path d="M1136 134L1099 88L1025 132Z" fill="#2e00ff" stroke="#2e00ff"></path><path d="M1025 132L1099 88L1007 113Z" fill="#040079" stroke="#040079"></path><path d="M979 258L1031 279L978 172Z" fill="#070086" stroke="#070086"></path><path d="M1031 279L1136 134L1025 132Z" fill="#2000d5" stroke="#2000d5"></path><path d="M956 52L850 162L978 172Z" fill="#1300ad" stroke="#1300ad"></path><path d="M1046 0L952 0L956 52Z" fill="#2e00ff" stroke="#2e00ff"></path><path d="M956 52L883 42L850 162Z" fill="#1300ad" stroke="#1300ad"></path><path d="M952 0L883 42L956 52Z" fill="#0b0092" stroke="#0b0092"></path><path d="M1151 0L1046 0L1099 88Z" fill="#1700ba" stroke="#1700ba"></path><path d="M1099 88L1046 0L1007 113Z" fill="#1700ba" stroke="#1700ba"></path><path d="M850 162L862 254L978 172Z" fill="#1700ba" stroke="#1700ba"></path><path d="M979 258L1040 328L1031 279Z" fill="#2900f1" stroke="#2900f1"></path><path d="M862 254L932 311L979 258Z" fill="#2900f1" stroke="#2900f1"></path><path d="M952 0L870 0L883 42Z" fill="#1300ad" stroke="#1300ad"></path><path d="M883 42L795 43L850 162Z" fill="#0b0092" stroke="#0b0092"></path><path d="M932 311L1040 328L979 258Z" fill="#1b00c7" stroke="#1b00c7"></path><path d="M1182 280L1208 201L1136 134Z" fill="#1700ba" stroke="#1700ba"></path><path d="M1136 134L1151 0L1099 88Z" fill="#2500e3" stroke="#2500e3"></path><path d="M732 198L843 293L862 254Z" fill="#070086" stroke="#070086"></path><path d="M862 254L843 293L932 311Z" fill="#1700ba" stroke="#1700ba"></path><path d="M1182 280L1136 134L1031 279Z" fill="#0b0092" stroke="#0b0092"></path><path d="M1243 46L1219 0L1151 0Z" fill="#2900f1" stroke="#2900f1"></path><path d="M870 0L795 43L883 42Z" fill="#2000d5" stroke="#2000d5"></path><path d="M850 162L732 198L862 254Z" fill="#2900f1" stroke="#2900f1"></path><path d="M1153 348L1182 280L1031 279Z" fill="#0f009f" stroke="#0f009f"></path><path d="M870 0L793 0L795 43Z" fill="#0f009f" stroke="#0f009f"></path><path d="M1040 328L1153 348L1031 279Z" fill="#2e00ff" stroke="#2e00ff"></path><path d="M1078 400L1153 348L1040 328Z" fill="#0b0092" stroke="#0b0092"></path><path d="M1153 348L1216 281L1182 280Z" fill="#1b00c7" stroke="#1b00c7"></path><path d="M1182 280L1216 281L1208 201Z" fill="#1300ad" stroke="#1300ad"></path><path d="M689 60L731 144L795 43Z" fill="#0f009f" stroke="#0f009f"></path><path d="M795 43L731 144L850 162Z" fill="#1300ad" stroke="#1300ad"></path><path d="M841 400L924 400L932 311Z" fill="#070086" stroke="#070086"></path><path d="M932 311L924 400L1040 328Z" fill="#0f009f" stroke="#0f009f"></path><path d="M1243 46L1151 0L1136 134Z" fill="#1300ad" stroke="#1300ad"></path><path d="M1243 46L1136 134L1208 201Z" fill="#040079" stroke="#040079"></path><path d="M1319 91L1243 46L1208 201Z" fill="#1700ba" stroke="#1700ba"></path><path d="M731 144L732 198L850 162Z" fill="#040079" stroke="#040079"></path><path d="M843 293L841 400L932 311Z" fill="#1300ad" stroke="#1300ad"></path><path d="M924 400L1078 400L1040 328Z" fill="#040079" stroke="#040079"></path><path d="M1078 400L1119 400L1153 348Z" fill="#2500e3" stroke="#2500e3"></path><path d="M1153 348L1272 339L1216 281Z" fill="#1b00c7" stroke="#1b00c7"></path><path d="M794 400L841 400L843 293Z" fill="#2900f1" stroke="#2900f1"></path><path d="M732 198L724 297L843 293Z" fill="#2500e3" stroke="#2500e3"></path><path d="M651 230L724 297L732 198Z" fill="#070086" stroke="#070086"></path><path d="M793 0L689 60L795 43Z" fill="#2500e3" stroke="#2500e3"></path><path d="M731 144L643 126L732 198Z" fill="#2500e3" stroke="#2500e3"></path><path d="M724 297L794 400L843 293Z" fill="#2500e3" stroke="#2500e3"></path><path d="M1352 181L1319 91L1208 201Z" fill="#2900f1" stroke="#2900f1"></path><path d="M1243 46L1329 0L1219 0Z" fill="#2500e3" stroke="#2500e3"></path><path d="M1267 400L1272 339L1153 348Z" fill="#0f009f" stroke="#0f009f"></path><path d="M1216 281L1325 239L1208 201Z" fill="#1300ad" stroke="#1300ad"></path><path d="M1272 339L1325 239L1216 281Z" fill="#2900f1" stroke="#2900f1"></path><path d="M793 0L680 0L689 60Z" fill="#1300ad" stroke="#1300ad"></path><path d="M689 60L643 126L731 144Z" fill="#2900f1" stroke="#2900f1"></path><path d="M599 62L643 126L689 60Z" fill="#0b0092" stroke="#0b0092"></path><path d="M643 126L651 230L732 198Z" fill="#1b00c7" stroke="#1b00c7"></path><path d="M724 297L674 400L794 400Z" fill="#070086" stroke="#070086"></path><path d="M1325 239L1352 181L1208 201Z" fill="#0f009f" stroke="#0f009f"></path><path d="M1441 57L1329 0L1319 91Z" fill="#0b0092" stroke="#0b0092"></path><path d="M1319 91L1329 0L1243 46Z" fill="#0f009f" stroke="#0f009f"></path><path d="M1119 400L1267 400L1153 348Z" fill="#1b00c7" stroke="#1b00c7"></path><path d="M1365 356L1393 247L1325 239Z" fill="#1300ad" stroke="#1300ad"></path><path d="M1325 239L1393 247L1352 181Z" fill="#2900f1" stroke="#2900f1"></path><path d="M601 278L655 307L651 230Z" fill="#2000d5" stroke="#2000d5"></path><path d="M651 230L655 307L724 297Z" fill="#1b00c7" stroke="#1b00c7"></path><path d="M680 0L599 62L689 60Z" fill="#2e00ff" stroke="#2e00ff"></path><path d="M541 176L601 278L651 230Z" fill="#0f009f" stroke="#0f009f"></path><path d="M532 400L674 400L655 307Z" fill="#0b0092" stroke="#0b0092"></path><path d="M655 307L674 400L724 297Z" fill="#2500e3" stroke="#2500e3"></path><path d="M1365 356L1325 239L1272 339Z" fill="#2900f1" stroke="#2900f1"></path><path d="M1450 126L1441 57L1319 91Z" fill="#2900f1" stroke="#2900f1"></path><path d="M541 176L651 230L643 126Z" fill="#2500e3" stroke="#2500e3"></path><path d="M1345 400L1365 356L1272 339Z" fill="#1b00c7" stroke="#1b00c7"></path><path d="M1267 400L1345 400L1272 339Z" fill="#2500e3" stroke="#2500e3"></path><path d="M599 62L541 176L643 126Z" fill="#2900f1" stroke="#2900f1"></path><path d="M1450 126L1319 91L1352 181Z" fill="#2000d5" stroke="#2000d5"></path><path d="M1393 247L1450 126L1352 181Z" fill="#2000d5" stroke="#2000d5"></path><path d="M1542 190L1450 126L1393 247Z" fill="#1b00c7" stroke="#1b00c7"></path><path d="M680 0L557 0L599 62Z" fill="#040079" stroke="#040079"></path><path d="M599 62L494 84L541 176Z" fill="#070086" stroke="#070086"></path><path d="M1485 0L1449 0L1441 57Z" fill="#2900f1" stroke="#2900f1"></path><path d="M1441 57L1449 0L1329 0Z" fill="#2900f1" stroke="#2900f1"></path><path d="M541 176L534 281L601 278Z" fill="#040079" stroke="#040079"></path><path d="M601 278L532 400L655 307Z" fill="#2000d5" stroke="#2000d5"></path><path d="M1451 400L1446 314L1365 356Z" fill="#040079" stroke="#040079"></path><path d="M1365 356L1446 314L1393 247Z" fill="#2000d5" stroke="#2000d5"></path><path d="M474 122L513 280L541 176Z" fill="#2900f1" stroke="#2900f1"></path><path d="M541 176L513 280L534 281Z" fill="#2e00ff" stroke="#2e00ff"></path><path d="M534 281L532 400L601 278Z" fill="#0f009f" stroke="#0f009f"></path><path d="M557 0L494 84L599 62Z" fill="#070086" stroke="#070086"></path><path d="M557 0L506 0L494 84Z" fill="#2500e3" stroke="#2500e3"></path><path d="M1549 67L1441 57L1450 126Z" fill="#2900f1" stroke="#2900f1"></path><path d="M1549 67L1485 0L1441 57Z" fill="#1300ad" stroke="#1300ad"></path><path d="M415 93L474 122L494 84Z" fill="#2000d5" stroke="#2000d5"></path><path d="M494 84L474 122L541 176Z" fill="#1300ad" stroke="#1300ad"></path><path d="M1345 400L1451 400L1365 356Z" fill="#070086" stroke="#070086"></path><path d="M1446 314L1542 190L1393 247Z" fill="#2500e3" stroke="#2500e3"></path><path d="M482 324L532 400L534 281Z" fill="#0b0092" stroke="#0b0092"></path><path d="M482 324L534 281L513 280Z" fill="#2900f1" stroke="#2900f1"></path><path d="M341 233L482 324L513 280Z" fill="#1b00c7" stroke="#1b00c7"></path><path d="M1552 276L1542 190L1446 314Z" fill="#0b0092" stroke="#0b0092"></path><path d="M1451 400L1512 338L1446 314Z" fill="#1700ba" stroke="#1700ba"></path><path d="M1542 190L1549 67L1450 126Z" fill="#1700ba" stroke="#1700ba"></path><path d="M1512 338L1552 276L1446 314Z" fill="#0b0092" stroke="#0b0092"></path><path d="M1648 83L1595 0L1549 67Z" fill="#1700ba" stroke="#1700ba"></path><path d="M375 341L478 400L482 324Z" fill="#2500e3" stroke="#2500e3"></path><path d="M482 324L478 400L532 400Z" fill="#1700ba" stroke="#1700ba"></path><path d="M391 0L415 93L494 84Z" fill="#2900f1" stroke="#2900f1"></path><path d="M474 122L362 157L513 280Z" fill="#1b00c7" stroke="#1b00c7"></path><path d="M1451 400L1546 400L1512 338Z" fill="#1300ad" stroke="#1300ad"></path><path d="M1512 338L1623 340L1552 276Z" fill="#0b0092" stroke="#0b0092"></path><path d="M1623 128L1549 67L1542 190Z" fill="#0b0092" stroke="#0b0092"></path><path d="M1549 67L1595 0L1485 0Z" fill="#070086" stroke="#070086"></path><path d="M1623 128L1542 190L1640 250Z" fill="#1b00c7" stroke="#1b00c7"></path><path d="M506 0L391 0L494 84Z" fill="#1b00c7" stroke="#1b00c7"></path><path d="M415 93L362 157L474 122Z" fill="#1700ba" stroke="#1700ba"></path><path d="M1640 250L1542 190L1552 276Z" fill="#0b0092" stroke="#0b0092"></path><path d="M278 39L362 157L415 93Z" fill="#1b00c7" stroke="#1b00c7"></path><path d="M341 233L375 341L482 324Z" fill="#1300ad" stroke="#1300ad"></path><path d="M1623 340L1640 250L1552 276Z" fill="#2900f1" stroke="#2900f1"></path><path d="M1683 186L1648 83L1623 128Z" fill="#0b0092" stroke="#0b0092"></path><path d="M1623 128L1648 83L1549 67Z" fill="#1700ba" stroke="#1700ba"></path><path d="M1546 400L1623 340L1512 338Z" fill="#2000d5" stroke="#2000d5"></path><path d="M322 259L341 233L278 150Z" fill="#0b0092" stroke="#0b0092"></path><path d="M362 157L341 233L513 280Z" fill="#070086" stroke="#070086"></path><path d="M278 150L341 233L362 157Z" fill="#1b00c7" stroke="#1b00c7"></path><path d="M341 233L322 259L375 341Z" fill="#2500e3" stroke="#2500e3"></path><path d="M315 400L361 400L375 341Z" fill="#1b00c7" stroke="#1b00c7"></path><path d="M375 341L361 400L478 400Z" fill="#2900f1" stroke="#2900f1"></path><path d="M1684 234L1683 186L1640 250Z" fill="#1b00c7" stroke="#1b00c7"></path><path d="M1640 250L1683 186L1623 128Z" fill="#2000d5" stroke="#2000d5"></path><path d="M1705 325L1684 234L1640 250Z" fill="#2900f1" stroke="#2900f1"></path><path d="M391 0L312 0L415 93Z" fill="#0f009f" stroke="#0f009f"></path><path d="M1546 400L1653 400L1623 340Z" fill="#0f009f" stroke="#0f009f"></path><path d="M1623 340L1705 325L1640 250Z" fill="#1300ad" stroke="#1300ad"></path><path d="M278 39L278 150L362 157Z" fill="#1b00c7" stroke="#1b00c7"></path><path d="M263 334L315 400L375 341Z" fill="#2900f1" stroke="#2900f1"></path><path d="M1751 73L1700 0L1648 83Z" fill="#0f009f" stroke="#0f009f"></path><path d="M1648 83L1700 0L1595 0Z" fill="#1300ad" stroke="#1300ad"></path><path d="M1751 73L1648 83L1683 186Z" fill="#1300ad" stroke="#1300ad"></path><path d="M312 0L278 39L415 93Z" fill="#040079" stroke="#040079"></path><path d="M263 334L375 341L322 259Z" fill="#1b00c7" stroke="#1b00c7"></path><path d="M1653 400L1705 325L1623 340Z" fill="#2000d5" stroke="#2000d5"></path><path d="M1796 172L1751 73L1683 186Z" fill="#070086" stroke="#070086"></path><path d="M1653 400L1694 400L1705 325Z" fill="#070086" stroke="#070086"></path><path d="M172 234L322 259L278 150Z" fill="#0b0092" stroke="#0b0092"></path><path d="M172 234L263 334L322 259Z" fill="#0f009f" stroke="#0f009f"></path><path d="M1780 227L1683 186L1684 234Z" fill="#0b0092" stroke="#0b0092"></path><path d="M1780 227L1684 234L1769 313Z" fill="#070086" stroke="#070086"></path><path d="M1769 313L1684 234L1705 325Z" fill="#2000d5" stroke="#2000d5"></path><path d="M1694 400L1769 313L1705 325Z" fill="#1700ba" stroke="#1700ba"></path><path d="M1832 61L1781 0L1751 73Z" fill="#1700ba" stroke="#1700ba"></path><path d="M1751 73L1781 0L1700 0Z" fill="#1b00c7" stroke="#1b00c7"></path><path d="M1900 136L1796 172L1900 280Z" fill="#2500e3" stroke="#2500e3"></path><path d="M1780 227L1796 172L1683 186Z" fill="#2000d5" stroke="#2000d5"></path><path d="M155 156L172 234L278 150Z" fill="#2e00ff" stroke="#2e00ff"></path><path d="M263 334L178 400L315 400Z" fill="#040079" stroke="#040079"></path><path d="M160 0L164 109L278 39Z" fill="#1300ad" stroke="#1300ad"></path><path d="M278 39L164 109L278 150Z" fill="#2900f1" stroke="#2900f1"></path><path d="M164 109L155 156L278 150Z" fill="#070086" stroke="#070086"></path><path d="M1796 172L1832 61L1751 73Z" fill="#040079" stroke="#040079"></path><path d="M1900 136L1832 61L1796 172Z" fill="#1300ad" stroke="#1300ad"></path><path d="M312 0L160 0L278 39Z" fill="#1300ad" stroke="#1300ad"></path><path d="M123 127L127 203L155 156Z" fill="#070086" stroke="#070086"></path><path d="M1694 400L1806 400L1769 313Z" fill="#1300ad" stroke="#1300ad"></path><path d="M1900 280L1796 172L1780 227Z" fill="#2e00ff" stroke="#2e00ff"></path><path d="M150 302L263 334L172 234Z" fill="#1300ad" stroke="#1300ad"></path><path d="M150 302L178 400L263 334Z" fill="#040079" stroke="#040079"></path><path d="M127 203L172 234L155 156Z" fill="#1300ad" stroke="#1300ad"></path><path d="M127 203L150 302L172 234Z" fill="#1b00c7" stroke="#1b00c7"></path><path d="M123 127L155 156L164 109Z" fill="#2500e3" stroke="#2500e3"></path><path d="M123 102L123 127L164 109Z" fill="#0b0092" stroke="#0b0092"></path><path d="M160 0L123 102L164 109Z" fill="#2500e3" stroke="#2500e3"></path><path d="M88 305L150 302L127 203Z" fill="#1b00c7" stroke="#1b00c7"></path><path d="M88 305L130 400L150 302Z" fill="#1b00c7" stroke="#1b00c7"></path><path d="M150 302L130 400L178 400Z" fill="#2e00ff" stroke="#2e00ff"></path><path d="M1900 280L1780 227L1769 313Z" fill="#2900f1" stroke="#2900f1"></path><path d="M1832 61L1900 0L1781 0Z" fill="#2500e3" stroke="#2500e3"></path><path d="M1900 136L1900 89L1832 61Z" fill="#2000d5" stroke="#2000d5"></path><path d="M0 73L0 189L123 127Z" fill="#2900f1" stroke="#2900f1"></path><path d="M0 277L88 305L127 203Z" fill="#2000d5" stroke="#2000d5"></path><path d="M160 0L97 0L123 102Z" fill="#1300ad" stroke="#1300ad"></path><path d="M1900 360L1900 280L1769 313Z" fill="#1300ad" stroke="#1300ad"></path><path d="M1900 89L1900 0L1832 61Z" fill="#1b00c7" stroke="#1b00c7"></path><path d="M0 189L127 203L123 127Z" fill="#2e00ff" stroke="#2e00ff"></path><path d="M1806 400L1900 360L1769 313Z" fill="#1700ba" stroke="#1700ba"></path><path d="M1806 400L1900 400L1900 360Z" fill="#2900f1" stroke="#2900f1"></path><path d="M0 73L123 127L123 102Z" fill="#070086" stroke="#070086"></path><path d="M88 305L0 400L130 400Z" fill="#2500e3" stroke="#2500e3"></path><path d="M97 0L0 73L123 102Z" fill="#1700ba" stroke="#1700ba"></path><path d="M0 189L0 277L127 203Z" fill="#0f009f" stroke="#0f009f"></path><path d="M97 0L0 0L0 73Z" fill="#040079" stroke="#040079"></path><path d="M0 277L0 336L88 305Z" fill="#2900f1" stroke="#2900f1"></path><path d="M0 336L0 400L88 305Z" fill="#2000d5" stroke="#2000d5"></path></g></svg>