<svg id="visual" viewBox="0 0 600 900" width="600" height="900" xmlns="http://www.w3.org/2000/svg" xmlns:xlink="http://www.w3.org/1999/xlink" version="1.1"><path d="M0 846L16.7 854.7C33.3 863.3 66.7 880.7 100 875.8C133.3 871 166.7 844 200 832.5C233.3 821 266.7 825 300 829.8C333.3 834.7 366.7 840.3 400 833.2C433.3 826 466.7 806 500 810.8C533.3 815.7 566.7 845.3 583.3 860.2L600 875L600 0L583.3 0C566.7 0 533.3 0 500 0C466.7 0 433.3 0 400 0C366.7 0 333.3 0 300 0C266.7 0 233.3 0 200 0C166.7 0 133.3 0 100 0C66.7 0 33.3 0 16.7 0L0 0Z" fill="#020022"></path><path d="M0 697L16.7 712.3C33.3 727.7 66.7 758.3 100 780.2C133.3 802 166.7 815 200 813.8C233.3 812.7 266.7 797.3 300 794.2C333.3 791 366.7 800 400 796.8C433.3 793.7 466.7 778.3 500 762.7C533.3 747 566.7 731 583.3 723L600 715L600 0L583.3 0C566.7 0 533.3 0 500 0C466.7 0 433.3 0 400 0C366.7 0 333.3 0 300 0C266.7 0 233.3 0 200 0C166.7 0 133.3 0 100 0C66.7 0 33.3 0 16.7 0L0 0Z" fill="#030a34"></path><path d="M0 662L16.7 670.2C33.3 678.3 66.7 694.7 100 709.5C133.3 724.3 166.7 737.7 200 724.7C233.3 711.7 266.7 672.3 300 658C333.3 643.7 366.7 654.3 400 675.2C433.3 696 466.7 727 500 723C533.3 719 566.7 680 583.3 660.5L600 641L600 0L583.3 0C566.7 0 533.3 0 500 0C466.7 0 433.3 0 400 0C366.7 0 333.3 0 300 0C266.7 0 233.3 0 200 0C166.7 0 133.3 0 100 0C66.7 0 33.3 0 16.7 0L0 0Z" fill="#001247"></path><path d="M0 615L16.7 614.5C33.3 614 66.7 613 100 611C133.3 609 166.7 606 200 616.7C233.3 627.3 266.7 651.7 300 654.5C333.3 657.3 366.7 638.7 400 638C433.3 637.3 466.7 654.7 500 652.2C533.3 649.7 566.7 627.3 583.3 616.2L600 605L600 0L583.3 0C566.7 0 533.3 0 500 0C466.7 0 433.3 0 400 0C366.7 0 333.3 0 300 0C266.7 0 233.3 0 200 0C166.7 0 133.3 0 100 0C66.7 0 33.3 0 16.7 0L0 0Z" fill="#00165a"></path><path d="M0 508L16.7 522.2C33.3 536.3 66.7 564.7 100 583.3C133.3 602 166.7 611 200 609.3C233.3 607.7 266.7 595.3 300 584.7C333.3 574 366.7 565 400 566.5C433.3 568 466.7 580 500 577.8C533.3 575.7 566.7 559.3 583.3 551.2L600 543L600 0L583.3 0C566.7 0 533.3 0 500 0C466.7 0 433.3 0 400 0C366.7 0 333.3 0 300 0C266.7 0 233.3 0 200 0C166.7 0 133.3 0 100 0C66.7 0 33.3 0 16.7 0L0 0Z" fill="#001a6e"></path><path d="M0 495L16.7 502.7C33.3 510.3 66.7 525.7 100 518.7C133.3 511.7 166.7 482.3 200 481C233.3 479.7 266.7 506.3 300 508C333.3 509.7 366.7 486.3 400 485.3C433.3 484.3 466.7 505.7 500 513C533.3 520.3 566.7 513.7 583.3 510.3L600 507L600 0L583.3 0C566.7 0 533.3 0 500 0C466.7 0 433.3 0 400 0C366.7 0 333.3 0 300 0C266.7 0 233.3 0 200 0C166.7 0 133.3 0 100 0C66.7 0 33.3 0 16.7 0L0 0Z" fill="#001d82"></path><path d="M0 351L16.7 351.3C33.3 351.7 66.7 352.3 100 361C133.3 369.7 166.7 386.3 200 386.5C233.3 386.7 266.7 370.3 300 382.8C333.3 395.3 366.7 436.7 400 451.3C433.3 466 466.7 454 500 440C533.3 426 566.7 410 583.3 402L600 394L600 0L583.3 0C566.7 0 533.3 0 500 0C466.7 0 433.3 0 400 0C366.7 0 333.3 0 300 0C266.7 0 233.3 0 200 0C166.7 0 133.3 0 100 0C66.7 0 33.3 0 16.7 0L0 0Z" fill="#001f96"></path><path d="M0 299L16.7 307.2C33.3 315.3 66.7 331.7 100 341.5C133.3 351.3 166.7 354.7 200 349.3C233.3 344 266.7 330 300 318C333.3 306 366.7 296 400 301.5C433.3 307 466.7 328 500 343.7C533.3 359.3 566.7 369.7 583.3 374.8L600 380L600 0L583.3 0C566.7 0 533.3 0 500 0C466.7 0 433.3 0 400 0C366.7 0 333.3 0 300 0C266.7 0 233.3 0 200 0C166.7 0 133.3 0 100 0C66.7 0 33.3 0 16.7 0L0 0Z" fill="#0021ab"></path><path d="M0 239L16.7 236.3C33.3 233.7 66.7 228.3 100 230.5C133.3 232.7 166.7 242.3 200 254.3C233.3 266.3 266.7 280.7 300 287C333.3 293.3 366.7 291.7 400 284.7C433.3 277.7 466.7 265.3 500 256.7C533.3 248 566.7 243 583.3 240.5L600 238L600 0L583.3 0C566.7 0 533.3 0 500 0C466.7 0 433.3 0 400 0C366.7 0 333.3 0 300 0C266.7 0 233.3 0 200 0C166.7 0 133.3 0 100 0C66.7 0 33.3 0 16.7 0L0 0Z" fill="#0022c0"></path><path d="M0 263L16.7 254.8C33.3 246.7 66.7 230.3 100 214.8C133.3 199.3 166.7 184.7 200 185.5C233.3 186.3 266.7 202.7 300 209.3C333.3 216 366.7 213 400 205C433.3 197 466.7 184 500 185.2C533.3 186.3 566.7 201.7 583.3 209.3L600 217L600 0L583.3 0C566.7 0 533.3 0 500 0C466.7 0 433.3 0 400 0C366.7 0 333.3 0 300 0C266.7 0 233.3 0 200 0C166.7 0 133.3 0 100 0C66.7 0 33.3 0 16.7 0L0 0Z" fill="#0022d5"></path><path d="M0 100L16.7 114.5C33.3 129 66.7 158 100 169C133.3 180 166.7 173 200 173.3C233.3 173.7 266.7 181.3 300 173.2C333.3 165 366.7 141 400 121.8C433.3 102.7 466.7 88.3 500 89.8C533.3 91.3 566.7 108.7 583.3 117.3L600 126L600 0L583.3 0C566.7 0 533.3 0 500 0C466.7 0 433.3 0 400 0C366.7 0 333.3 0 300 0C266.7 0 233.3 0 200 0C166.7 0 133.3 0 100 0C66.7 0 33.3 0 16.7 0L0 0Z" fill="#0021ea"></path><path d="M0 29L16.7 41.2C33.3 53.3 66.7 77.7 100 84.7C133.3 91.7 166.7 81.3 200 76.5C233.3 71.7 266.7 72.3 300 78.7C333.3 85 366.7 97 400 86.7C433.3 76.3 466.7 43.7 500 41.3C533.3 39 566.7 67 583.3 81L600 95L600 0L583.3 0C566.7 0 533.3 0 500 0C466.7 0 433.3 0 400 0C366.7 0 333.3 0 300 0C266.7 0 233.3 0 200 0C166.7 0 133.3 0 100 0C66.7 0 33.3 0 16.7 0L0 0Z" fill="#001fff"></path></svg>