<svg width="100%" height="100%" id="svg" viewBox="0 0 1440 600" xmlns="http://www.w3.org/2000/svg" class="transition duration-300 ease-in-out delay-150"><path d="M 0,600 C 0,600 0,120 0,120 C 138.42857142857144,104.92857142857143 276.8571428571429,89.85714285714286 406,98 C 535.1428571428571,106.14285714285714 655.0000000000001,137.5 756,146 C 856.9999999999999,154.5 939.1428571428571,140.14285714285717 1050,132 C 1160.857142857143,123.85714285714285 1300.4285714285716,121.92857142857142 1440,120 C 1440,120 1440,600 1440,600 Z" stroke="none" stroke-width="0" fill="#0f67f6" fill-opacity="0.265" class="transition-all duration-300 ease-in-out delay-150 path-0" transform="rotate(-180 720 300)"></path><path d="M 0,600 C 0,600 0,240 0,240 C 96.60714285714286,215.35714285714286 193.21428571428572,190.71428571428572 300,200 C 406.7857142857143,209.28571428571428 523.75,252.49999999999994 671,256 C 818.25,259.50000000000006 995.7857142857142,223.2857142857143 1129,214 C 1262.2142857142858,204.7142857142857 1351.107142857143,222.35714285714283 1440,240 C 1440,240 1440,600 1440,600 Z" stroke="none" stroke-width="0" fill="#0f67f6" class="transition-all duration-300 ease-in-out delay-150 path-1" fill-opacity="0.4" transform="rotate(-180 720 300)"></path><path d="M 0,600 C 0,600 0,360 0,360 C 116.42857142857142,381.7857142857143 232.85714285714283,403.57142857142856 353,392 C 473.14285714285717,380.42857142857144 597,335.49999999999994 703,318 C 809,300.50000000000006 897.1428571428571,310.42857142857144 1017,322 C 1136.857142857143,333.57142857142856 1288.4285714285716,346.7857142857143 1440,360 C 1440,360 1440,600 1440,600 Z" stroke="none" stroke-width="0" fill="#0f67f6" class="transition-all duration-300 ease-in-out delay-150 path-2" fill-opacity="0.53" transform="rotate(-180 720 300)"></path><path d="M 0,600 C 0,600 0,480 0,480 C 141.03571428571428,478.7142857142857 282.07142857142856,477.42857142857144 410,490 C 537.9285714285714,502.57142857142856 652.75,529 772,520 C 891.25,511 1014.9285714285713,466.57142857142856 1127,454 C 1239.0714285714287,441.42857142857144 1339.5357142857142,460.7142857142857 1440,480 C 1440,480 1440,600 1440,600 Z" stroke="none" stroke-width="0" fill="#0f67f6" class="transition-all duration-300 ease-in-out delay-150 path-3" fill-opacity="1" transform="rotate(-180 720 300)"></path></svg>