<svg id="visual" viewBox="0 0 1400 900" width="1400" height="900" xmlns="http://www.w3.org/2000/svg" xmlns:xlink="http://www.w3.org/1999/xlink" version="1.1"><path d="M0 91L10.2 86.2C20.3 81.3 40.7 71.7 61 68C81.3 64.3 101.7 66.7 122 62.2C142.3 57.7 162.7 46.3 182.8 43.8C203 41.3 223 47.7 243.2 54.3C263.3 61 283.7 68 304 76.3C324.3 84.7 344.7 94.3 365 93.2C385.3 92 405.7 80 426 70C446.3 60 466.7 52 487 41C507.3 30 527.7 16 548 31.2C568.3 46.3 588.7 90.7 609 105.5C629.3 120.3 649.7 105.7 669.8 88.3C690 71 710 51 730.2 37.7C750.3 24.3 770.7 17.7 791 13.8C811.3 10 831.7 9 852 14C872.3 19 892.7 30 913 36.3C933.3 42.7 953.7 44.3 974 43C994.3 41.7 1014.7 37.3 1035 47.7C1055.3 58 1075.7 83 1096 82.7C1116.3 82.3 1136.7 56.7 1156.8 54.3C1177 52 1197 73 1217.2 83.8C1237.3 94.7 1257.7 95.3 1278 99.2C1298.3 103 1318.7 110 1339 103.3C1359.3 96.7 1379.7 76.3 1389.8 66.2L1400 56L1400 901L1389.8 901C1379.7 901 1359.3 901 1339 901C1318.7 901 1298.3 901 1278 901C1257.7 901 1237.3 901 1217.2 901C1197 901 1177 901 1156.8 901C1136.7 901 1116.3 901 1096 901C1075.7 901 1055.3 901 1035 901C1014.7 901 994.3 901 974 901C953.7 901 933.3 901 913 901C892.7 901 872.3 901 852 901C831.7 901 811.3 901 791 901C770.7 901 750.3 901 730.2 901C710 901 690 901 669.8 901C649.7 901 629.3 901 609 901C588.7 901 568.3 901 548 901C527.7 901 507.3 901 487 901C466.7 901 446.3 901 426 901C405.7 901 385.3 901 365 901C344.7 901 324.3 901 304 901C283.7 901 263.3 901 243.2 901C223 901 203 901 182.8 901C162.7 901 142.3 901 122 901C101.7 901 81.3 901 61 901C40.7 901 20.3 901 10.2 901L0 901Z" fill="#1700ff"></path><path d="M0 170L10.2 164.5C20.3 159 40.7 148 61 140.8C81.3 133.7 101.7 130.3 122 135.3C142.3 140.3 162.7 153.7 182.8 159.5C203 165.3 223 163.7 243.2 148C263.3 132.3 283.7 102.7 304 100C324.3 97.3 344.7 121.7 365 138.7C385.3 155.7 405.7 165.3 426 169.2C446.3 173 466.7 171 487 155.7C507.3 140.3 527.7 111.7 548 107.7C568.3 103.7 588.7 124.3 609 139.7C629.3 155 649.7 165 669.8 174.5C690 184 710 193 730.2 179.2C750.3 165.3 770.7 128.7 791 119.8C811.3 111 831.7 130 852 146.2C872.3 162.3 892.7 175.7 913 181.8C933.3 188 953.7 187 974 183C994.3 179 1014.7 172 1035 170.5C1055.3 169 1075.7 173 1096 164C1116.3 155 1136.7 133 1156.8 132.3C1177 131.7 1197 152.3 1217.2 158.2C1237.3 164 1257.7 155 1278 158.8C1298.3 162.7 1318.7 179.3 1339 178.8C1359.3 178.3 1379.7 160.7 1389.8 151.8L1400 143L1400 901L1389.8 901C1379.7 901 1359.3 901 1339 901C1318.7 901 1298.3 901 1278 901C1257.7 901 1237.3 901 1217.2 901C1197 901 1177 901 1156.8 901C1136.7 901 1116.3 901 1096 901C1075.7 901 1055.3 901 1035 901C1014.7 901 994.3 901 974 901C953.7 901 933.3 901 913 901C892.7 901 872.3 901 852 901C831.7 901 811.3 901 791 901C770.7 901 750.3 901 730.2 901C710 901 690 901 669.8 901C649.7 901 629.3 901 609 901C588.7 901 568.3 901 548 901C527.7 901 507.3 901 487 901C466.7 901 446.3 901 426 901C405.7 901 385.3 901 365 901C344.7 901 324.3 901 304 901C283.7 901 263.3 901 243.2 901C223 901 203 901 182.8 901C162.7 901 142.3 901 122 901C101.7 901 81.3 901 61 901C40.7 901 20.3 901 10.2 901L0 901Z" fill="#1a02ec"></path><path d="M0 198L10.2 195.5C20.3 193 40.7 188 61 198C81.3 208 101.7 233 122 231.5C142.3 230 162.7 202 182.8 189.8C203 177.7 223 181.3 243.2 197.5C263.3 213.7 283.7 242.3 304 242C324.3 241.7 344.7 212.3 365 211C385.3 209.7 405.7 236.3 426 234.7C446.3 233 466.7 203 487 192C507.3 181 527.7 189 548 196C568.3 203 588.7 209 609 217C629.3 225 649.7 235 669.8 226.7C690 218.3 710 191.7 730.2 185.3C750.3 179 770.7 193 791 199.3C811.3 205.7 831.7 204.3 852 211.3C872.3 218.3 892.7 233.7 913 237C933.3 240.3 953.7 231.7 974 235.2C994.3 238.7 1014.7 254.3 1035 252.2C1055.3 250 1075.7 230 1096 217.7C1116.3 205.3 1136.7 200.7 1156.8 208.3C1177 216 1197 236 1217.2 227C1237.3 218 1257.7 180 1278 162.7C1298.3 145.3 1318.7 148.7 1339 157.2C1359.3 165.7 1379.7 179.3 1389.8 186.2L1400 193L1400 901L1389.8 901C1379.7 901 1359.3 901 1339 901C1318.7 901 1298.3 901 1278 901C1257.7 901 1237.3 901 1217.2 901C1197 901 1177 901 1156.8 901C1136.7 901 1116.3 901 1096 901C1075.7 901 1055.3 901 1035 901C1014.7 901 994.3 901 974 901C953.7 901 933.3 901 913 901C892.7 901 872.3 901 852 901C831.7 901 811.3 901 791 901C770.7 901 750.3 901 730.2 901C710 901 690 901 669.8 901C649.7 901 629.3 901 609 901C588.7 901 568.3 901 548 901C527.7 901 507.3 901 487 901C466.7 901 446.3 901 426 901C405.7 901 385.3 901 365 901C344.7 901 324.3 901 304 901C283.7 901 263.3 901 243.2 901C223 901 203 901 182.8 901C162.7 901 142.3 901 122 901C101.7 901 81.3 901 61 901C40.7 901 20.3 901 10.2 901L0 901Z" fill="#1c03d9"></path><path d="M0 275L10.2 285.2C20.3 295.3 40.7 315.7 61 316.3C81.3 317 101.7 298 122 282.7C142.3 267.3 162.7 255.7 182.8 244.5C203 233.3 223 222.7 243.2 229.7C263.3 236.7 283.7 261.3 304 267.8C324.3 274.3 344.7 262.7 365 253.5C385.3 244.3 405.7 237.7 426 236.7C446.3 235.7 466.7 240.3 487 238.7C507.3 237 527.7 229 548 231C568.3 233 588.7 245 609 254.3C629.3 263.7 649.7 270.3 669.8 278C690 285.7 710 294.3 730.2 292C750.3 289.7 770.7 276.3 791 283.2C811.3 290 831.7 317 852 328.5C872.3 340 892.7 336 913 324.2C933.3 312.3 953.7 292.7 974 290.2C994.3 287.7 1014.7 302.3 1035 300.8C1055.3 299.3 1075.7 281.7 1096 265.2C1116.3 248.7 1136.7 233.3 1156.8 244.7C1177 256 1197 294 1217.2 299.5C1237.3 305 1257.7 278 1278 271.7C1298.3 265.3 1318.7 279.7 1339 279C1359.3 278.3 1379.7 262.7 1389.8 254.8L1400 247L1400 901L1389.8 901C1379.7 901 1359.3 901 1339 901C1318.7 901 1298.3 901 1278 901C1257.7 901 1237.3 901 1217.2 901C1197 901 1177 901 1156.8 901C1136.7 901 1116.3 901 1096 901C1075.7 901 1055.3 901 1035 901C1014.7 901 994.3 901 974 901C953.7 901 933.3 901 913 901C892.7 901 872.3 901 852 901C831.7 901 811.3 901 791 901C770.7 901 750.3 901 730.2 901C710 901 690 901 669.8 901C649.7 901 629.3 901 609 901C588.7 901 568.3 901 548 901C527.7 901 507.3 901 487 901C466.7 901 446.3 901 426 901C405.7 901 385.3 901 365 901C344.7 901 324.3 901 304 901C283.7 901 263.3 901 243.2 901C223 901 203 901 182.8 901C162.7 901 142.3 901 122 901C101.7 901 81.3 901 61 901C40.7 901 20.3 901 10.2 901L0 901Z" fill="#1d04c6"></path><path d="M0 302L10.2 317.7C20.3 333.3 40.7 364.7 61 372C81.3 379.3 101.7 362.7 122 348.2C142.3 333.7 162.7 321.3 182.8 331.7C203 342 223 375 243.2 371.5C263.3 368 283.7 328 304 319.3C324.3 310.7 344.7 333.3 365 334.3C385.3 335.3 405.7 314.7 426 317C446.3 319.3 466.7 344.7 487 353.8C507.3 363 527.7 356 548 344.8C568.3 333.7 588.7 318.3 609 328.2C629.3 338 649.7 373 669.8 374.8C690 376.7 710 345.3 730.2 336.8C750.3 328.3 770.7 342.7 791 349.2C811.3 355.7 831.7 354.3 852 346.5C872.3 338.7 892.7 324.3 913 314C933.3 303.7 953.7 297.3 974 296.7C994.3 296 1014.7 301 1035 304.3C1055.3 307.7 1075.7 309.3 1096 321.8C1116.3 334.3 1136.7 357.7 1156.8 369.7C1177 381.7 1197 382.3 1217.2 378C1237.3 373.7 1257.7 364.3 1278 362.2C1298.3 360 1318.7 365 1339 364.2C1359.3 363.3 1379.7 356.7 1389.8 353.3L1400 350L1400 901L1389.8 901C1379.7 901 1359.3 901 1339 901C1318.7 901 1298.3 901 1278 901C1257.7 901 1237.3 901 1217.2 901C1197 901 1177 901 1156.8 901C1136.7 901 1116.3 901 1096 901C1075.7 901 1055.3 901 1035 901C1014.7 901 994.3 901 974 901C953.7 901 933.3 901 913 901C892.7 901 872.3 901 852 901C831.7 901 811.3 901 791 901C770.7 901 750.3 901 730.2 901C710 901 690 901 669.8 901C649.7 901 629.3 901 609 901C588.7 901 568.3 901 548 901C527.7 901 507.3 901 487 901C466.7 901 446.3 901 426 901C405.7 901 385.3 901 365 901C344.7 901 324.3 901 304 901C283.7 901 263.3 901 243.2 901C223 901 203 901 182.8 901C162.7 901 142.3 901 122 901C101.7 901 81.3 901 61 901C40.7 901 20.3 901 10.2 901L0 901Z" fill="#1d05b4"></path><path d="M0 465L10.2 465.8C20.3 466.7 40.7 468.3 61 467.2C81.3 466 101.7 462 122 453.3C142.3 444.7 162.7 431.3 182.8 419C203 406.7 223 395.3 243.2 383.5C263.3 371.7 283.7 359.3 304 358.7C324.3 358 344.7 369 365 377.5C385.3 386 405.7 392 426 406.3C446.3 420.7 466.7 443.3 487 436.5C507.3 429.7 527.7 393.3 548 385.5C568.3 377.7 588.7 398.3 609 409.2C629.3 420 649.7 421 669.8 431C690 441 710 460 730.2 448C750.3 436 770.7 393 791 378.8C811.3 364.7 831.7 379.3 852 396.7C872.3 414 892.7 434 913 435.7C933.3 437.3 953.7 420.7 974 421.8C994.3 423 1014.7 442 1035 448.3C1055.3 454.7 1075.7 448.3 1096 431.3C1116.3 414.3 1136.7 386.7 1156.8 389.8C1177 393 1197 427 1217.2 435.7C1237.3 444.3 1257.7 427.7 1278 420.2C1298.3 412.7 1318.7 414.3 1339 424.5C1359.3 434.7 1379.7 453.3 1389.8 462.7L1400 472L1400 901L1389.8 901C1379.7 901 1359.3 901 1339 901C1318.7 901 1298.3 901 1278 901C1257.7 901 1237.3 901 1217.2 901C1197 901 1177 901 1156.8 901C1136.7 901 1116.3 901 1096 901C1075.7 901 1055.3 901 1035 901C1014.7 901 994.3 901 974 901C953.7 901 933.3 901 913 901C892.7 901 872.3 901 852 901C831.7 901 811.3 901 791 901C770.7 901 750.3 901 730.2 901C710 901 690 901 669.8 901C649.7 901 629.3 901 609 901C588.7 901 568.3 901 548 901C527.7 901 507.3 901 487 901C466.7 901 446.3 901 426 901C405.7 901 385.3 901 365 901C344.7 901 324.3 901 304 901C283.7 901 263.3 901 243.2 901C223 901 203 901 182.8 901C162.7 901 142.3 901 122 901C101.7 901 81.3 901 61 901C40.7 901 20.3 901 10.2 901L0 901Z" fill="#1c06a2"></path><path d="M0 473L10.2 472.5C20.3 472 40.7 471 61 469.8C81.3 468.7 101.7 467.3 122 466.2C142.3 465 162.7 464 182.8 472.2C203 480.3 223 497.7 243.2 507.8C263.3 518 283.7 521 304 522.2C324.3 523.3 344.7 522.7 365 506.2C385.3 489.7 405.7 457.3 426 449C446.3 440.7 466.7 456.3 487 456.2C507.3 456 527.7 440 548 441.5C568.3 443 588.7 462 609 482.3C629.3 502.7 649.7 524.3 669.8 513.7C690 503 710 460 730.2 441.7C750.3 423.3 770.7 429.7 791 440.7C811.3 451.7 831.7 467.3 852 471C872.3 474.7 892.7 466.3 913 461.3C933.3 456.3 953.7 454.7 974 465.3C994.3 476 1014.7 499 1035 506.3C1055.3 513.7 1075.7 505.3 1096 505C1116.3 504.7 1136.7 512.3 1156.8 515.8C1177 519.3 1197 518.7 1217.2 524C1237.3 529.3 1257.7 540.7 1278 525.8C1298.3 511 1318.7 470 1339 448.8C1359.3 427.7 1379.7 426.3 1389.8 425.7L1400 425L1400 901L1389.8 901C1379.7 901 1359.3 901 1339 901C1318.7 901 1298.3 901 1278 901C1257.7 901 1237.3 901 1217.2 901C1197 901 1177 901 1156.8 901C1136.7 901 1116.3 901 1096 901C1075.7 901 1055.3 901 1035 901C1014.7 901 994.3 901 974 901C953.7 901 933.3 901 913 901C892.7 901 872.3 901 852 901C831.7 901 811.3 901 791 901C770.7 901 750.3 901 730.2 901C710 901 690 901 669.8 901C649.7 901 629.3 901 609 901C588.7 901 568.3 901 548 901C527.7 901 507.3 901 487 901C466.7 901 446.3 901 426 901C405.7 901 385.3 901 365 901C344.7 901 324.3 901 304 901C283.7 901 263.3 901 243.2 901C223 901 203 901 182.8 901C162.7 901 142.3 901 122 901C101.7 901 81.3 901 61 901C40.7 901 20.3 901 10.2 901L0 901Z" fill="#1b0690"></path><path d="M0 592L10.2 595C20.3 598 40.7 604 61 599C81.3 594 101.7 578 122 571.8C142.3 565.7 162.7 569.3 182.8 573.8C203 578.3 223 583.7 243.2 578.8C263.3 574 283.7 559 304 557.5C324.3 556 344.7 568 365 575.5C385.3 583 405.7 586 426 578.3C446.3 570.7 466.7 552.3 487 555C507.3 557.7 527.7 581.3 548 577.7C568.3 574 588.7 543 609 529.3C629.3 515.7 649.7 519.3 669.8 525.3C690 531.3 710 539.7 730.2 536.5C750.3 533.3 770.7 518.7 791 517.5C811.3 516.3 831.7 528.7 852 535.3C872.3 542 892.7 543 913 534C933.3 525 953.7 506 974 510C994.3 514 1014.7 541 1035 554.2C1055.3 567.3 1075.7 566.7 1096 561.8C1116.3 557 1136.7 548 1156.8 544.2C1177 540.3 1197 541.7 1217.2 549.5C1237.3 557.3 1257.7 571.7 1278 582C1298.3 592.3 1318.7 598.7 1339 593.3C1359.3 588 1379.7 571 1389.8 562.5L1400 554L1400 901L1389.8 901C1379.7 901 1359.3 901 1339 901C1318.7 901 1298.3 901 1278 901C1257.7 901 1237.3 901 1217.2 901C1197 901 1177 901 1156.8 901C1136.7 901 1116.3 901 1096 901C1075.7 901 1055.3 901 1035 901C1014.7 901 994.3 901 974 901C953.7 901 933.3 901 913 901C892.7 901 872.3 901 852 901C831.7 901 811.3 901 791 901C770.7 901 750.3 901 730.2 901C710 901 690 901 669.8 901C649.7 901 629.3 901 609 901C588.7 901 568.3 901 548 901C527.7 901 507.3 901 487 901C466.7 901 446.3 901 426 901C405.7 901 385.3 901 365 901C344.7 901 324.3 901 304 901C283.7 901 263.3 901 243.2 901C223 901 203 901 182.8 901C162.7 901 142.3 901 122 901C101.7 901 81.3 901 61 901C40.7 901 20.3 901 10.2 901L0 901Z" fill="#1a067f"></path><path d="M0 588L10.2 583.7C20.3 579.3 40.7 570.7 61 570.7C81.3 570.7 101.7 579.3 122 593.7C142.3 608 162.7 628 182.8 631.3C203 634.7 223 621.3 243.2 608.3C263.3 595.3 283.7 582.7 304 577.8C324.3 573 344.7 576 365 591.5C385.3 607 405.7 635 426 631C446.3 627 466.7 591 487 578.8C507.3 566.7 527.7 578.3 548 585C568.3 591.7 588.7 593.3 609 605.8C629.3 618.3 649.7 641.7 669.8 655.7C690 669.7 710 674.3 730.2 660.3C750.3 646.3 770.7 613.7 791 598.2C811.3 582.7 831.7 584.3 852 594C872.3 603.7 892.7 621.3 913 617.7C933.3 614 953.7 589 974 589.8C994.3 590.7 1014.7 617.3 1035 616C1055.3 614.7 1075.7 585.3 1096 582.3C1116.3 579.3 1136.7 602.7 1156.8 619.2C1177 635.7 1197 645.3 1217.2 633.8C1237.3 622.3 1257.7 589.7 1278 578.8C1298.3 568 1318.7 579 1339 586.7C1359.3 594.3 1379.7 598.7 1389.8 600.8L1400 603L1400 901L1389.8 901C1379.7 901 1359.3 901 1339 901C1318.7 901 1298.3 901 1278 901C1257.7 901 1237.3 901 1217.2 901C1197 901 1177 901 1156.8 901C1136.7 901 1116.3 901 1096 901C1075.7 901 1055.3 901 1035 901C1014.7 901 994.3 901 974 901C953.7 901 933.3 901 913 901C892.7 901 872.3 901 852 901C831.7 901 811.3 901 791 901C770.7 901 750.3 901 730.2 901C710 901 690 901 669.8 901C649.7 901 629.3 901 609 901C588.7 901 568.3 901 548 901C527.7 901 507.3 901 487 901C466.7 901 446.3 901 426 901C405.7 901 385.3 901 365 901C344.7 901 324.3 901 304 901C283.7 901 263.3 901 243.2 901C223 901 203 901 182.8 901C162.7 901 142.3 901 122 901C101.7 901 81.3 901 61 901C40.7 901 20.3 901 10.2 901L0 901Z" fill="#18066e"></path><path d="M0 755L10.2 751.5C20.3 748 40.7 741 61 741.2C81.3 741.3 101.7 748.7 122 748.5C142.3 748.3 162.7 740.7 182.8 718.5C203 696.3 223 659.7 243.2 651C263.3 642.3 283.7 661.7 304 683.7C324.3 705.7 344.7 730.3 365 742.5C385.3 754.7 405.7 754.3 426 746.8C446.3 739.3 466.7 724.7 487 705.3C507.3 686 527.7 662 548 670.2C568.3 678.3 588.7 718.7 609 718.7C629.3 718.7 649.7 678.3 669.8 661.7C690 645 710 652 730.2 650.3C750.3 648.7 770.7 638.3 791 647.2C811.3 656 831.7 684 852 689.8C872.3 695.7 892.7 679.3 913 677.8C933.3 676.3 953.7 689.7 974 702.7C994.3 715.7 1014.7 728.3 1035 723.5C1055.3 718.7 1075.7 696.3 1096 695C1116.3 693.7 1136.7 713.3 1156.8 705.5C1177 697.7 1197 662.3 1217.2 650.3C1237.3 638.3 1257.7 649.7 1278 662.8C1298.3 676 1318.7 691 1339 689C1359.3 687 1379.7 668 1389.8 658.5L1400 649L1400 901L1389.8 901C1379.7 901 1359.3 901 1339 901C1318.7 901 1298.3 901 1278 901C1257.7 901 1237.3 901 1217.2 901C1197 901 1177 901 1156.8 901C1136.7 901 1116.3 901 1096 901C1075.7 901 1055.3 901 1035 901C1014.7 901 994.3 901 974 901C953.7 901 933.3 901 913 901C892.7 901 872.3 901 852 901C831.7 901 811.3 901 791 901C770.7 901 750.3 901 730.2 901C710 901 690 901 669.8 901C649.7 901 629.3 901 609 901C588.7 901 568.3 901 548 901C527.7 901 507.3 901 487 901C466.7 901 446.3 901 426 901C405.7 901 385.3 901 365 901C344.7 901 324.3 901 304 901C283.7 901 263.3 901 243.2 901C223 901 203 901 182.8 901C162.7 901 142.3 901 122 901C101.7 901 81.3 901 61 901C40.7 901 20.3 901 10.2 901L0 901Z" fill="#16055d"></path><path d="M0 714L10.2 732.3C20.3 750.7 40.7 787.3 61 784.7C81.3 782 101.7 740 122 729.2C142.3 718.3 162.7 738.7 182.8 742C203 745.3 223 731.7 243.2 741.7C263.3 751.7 283.7 785.3 304 784.2C324.3 783 344.7 747 365 744.8C385.3 742.7 405.7 774.3 426 786C446.3 797.7 466.7 789.3 487 774C507.3 758.7 527.7 736.3 548 732.5C568.3 728.7 588.7 743.3 609 749.2C629.3 755 649.7 752 669.8 759.3C690 766.7 710 784.3 730.2 784.8C750.3 785.3 770.7 768.7 791 766.5C811.3 764.3 831.7 776.7 852 783.2C872.3 789.7 892.7 790.3 913 777.2C933.3 764 953.7 737 974 726.5C994.3 716 1014.7 722 1035 724.8C1055.3 727.7 1075.7 727.3 1096 739.5C1116.3 751.7 1136.7 776.3 1156.8 779.7C1177 783 1197 765 1217.2 758.2C1237.3 751.3 1257.7 755.7 1278 754.3C1298.3 753 1318.7 746 1339 757.5C1359.3 769 1379.7 799 1389.8 814L1400 829L1400 901L1389.8 901C1379.7 901 1359.3 901 1339 901C1318.7 901 1298.3 901 1278 901C1257.7 901 1237.3 901 1217.2 901C1197 901 1177 901 1156.8 901C1136.7 901 1116.3 901 1096 901C1075.7 901 1055.3 901 1035 901C1014.7 901 994.3 901 974 901C953.7 901 933.3 901 913 901C892.7 901 872.3 901 852 901C831.7 901 811.3 901 791 901C770.7 901 750.3 901 730.2 901C710 901 690 901 669.8 901C649.7 901 629.3 901 609 901C588.7 901 568.3 901 548 901C527.7 901 507.3 901 487 901C466.7 901 446.3 901 426 901C405.7 901 385.3 901 365 901C344.7 901 324.3 901 304 901C283.7 901 263.3 901 243.2 901C223 901 203 901 182.8 901C162.7 901 142.3 901 122 901C101.7 901 81.3 901 61 901C40.7 901 20.3 901 10.2 901L0 901Z" fill="#13054d"></path><path d="M0 775L10.2 784.5C20.3 794 40.7 813 61 812.5C81.3 812 101.7 792 122 802.2C142.3 812.3 162.7 852.7 182.8 872.3C203 892 223 891 243.2 891C263.3 891 283.7 892 304 892.3C324.3 892.7 344.7 892.3 365 884.8C385.3 877.3 405.7 862.7 426 859.8C446.3 857 466.7 866 487 855.3C507.3 844.7 527.7 814.3 548 809.2C568.3 804 588.7 824 609 834.7C629.3 845.3 649.7 846.7 669.8 839.2C690 831.7 710 815.3 730.2 802.7C750.3 790 770.7 781 791 779.7C811.3 778.3 831.7 784.7 852 788C872.3 791.3 892.7 791.7 913 790.3C933.3 789 953.7 786 974 800.3C994.3 814.7 1014.7 846.3 1035 864.8C1055.3 883.3 1075.7 888.7 1096 878.3C1116.3 868 1136.7 842 1156.8 821.7C1177 801.3 1197 786.7 1217.2 783C1237.3 779.3 1257.7 786.7 1278 799.2C1298.3 811.7 1318.7 829.3 1339 827.7C1359.3 826 1379.7 805 1389.8 794.5L1400 784L1400 901L1389.8 901C1379.7 901 1359.3 901 1339 901C1318.7 901 1298.3 901 1278 901C1257.7 901 1237.3 901 1217.2 901C1197 901 1177 901 1156.8 901C1136.7 901 1116.3 901 1096 901C1075.7 901 1055.3 901 1035 901C1014.7 901 994.3 901 974 901C953.7 901 933.3 901 913 901C892.7 901 872.3 901 852 901C831.7 901 811.3 901 791 901C770.7 901 750.3 901 730.2 901C710 901 690 901 669.8 901C649.7 901 629.3 901 609 901C588.7 901 568.3 901 548 901C527.7 901 507.3 901 487 901C466.7 901 446.3 901 426 901C405.7 901 385.3 901 365 901C344.7 901 324.3 901 304 901C283.7 901 263.3 901 243.2 901C223 901 203 901 182.8 901C162.7 901 142.3 901 122 901C101.7 901 81.3 901 61 901C40.7 901 20.3 901 10.2 901L0 901Z" fill="#12013e"></path></svg>