<svg xmlns="http://www.w3.org/2000/svg" viewBox="0 0 1440 320"><path fill="#d2e3ff" d="M0,32L20,58.7C40,85,80,139,120,160C160,181,200,171,240,160C280,149,320,139,360,160C400,181,440,235,480,245.3C520,256,560,224,600,197.3C640,171,680,149,720,170.7C760,192,800,256,840,240C880,224,920,128,960,85.3C1000,43,1040,53,1080,96C1120,139,1160,213,1200,234.7C1240,256,1280,224,1320,202.7C1360,181,1400,171,1420,165.3L1440,160L1440,320L1420,320C1400,320,1360,320,1320,320C1280,320,1240,320,1200,320C1160,320,1120,320,1080,320C1040,320,1000,320,960,320C920,320,880,320,840,320C800,320,760,320,720,320C680,320,640,320,600,320C560,320,520,320,480,320C440,320,400,320,360,320C320,320,280,320,240,320C200,320,160,320,120,320C80,320,40,320,20,320L0,320Z"></path></svg>